<svg xmlns="http://www.w3.org/2000/svg" xmlns:xlink="http://www.w3.org/1999/xlink" width="1080" zoomAndPan="magnify" viewBox="0 0 810 809.999993" height="1080" preserveAspectRatio="xMidYMid meet" version="1.0"><path fill="#ffffff" d="M 809.335938 543.089844 C 807.351562 541.105469 804.703125 539.777344 802.050781 540.441406 C 787.480469 545.078125 774.898438 538.453125 760.988281 537.128906 C 725.886719 533.820312 690.785156 533.820312 655.683594 531.832031 C 637.136719 530.507812 618.59375 529.183594 600.050781 526.53125 C 594.089844 524.546875 588.789062 520.574219 585.476562 515.273438 C 565.609375 487.457031 555.675781 455.003906 546.402344 422.550781 C 535.144531 384.800781 535.804688 384.800781 496.730469 383.476562 C 490.105469 382.8125 483.484375 382.152344 476.859375 380.824219 C 478.847656 377.515625 481.496094 374.863281 485.46875 373.539062 C 497.390625 368.242188 509.3125 364.269531 520.574219 357.644531 C 525.871094 354.332031 529.183594 349.035156 530.507812 343.738281 C 530.507812 339.761719 525.207031 334.464844 521.234375 331.152344 C 515.273438 327.839844 509.3125 324.53125 502.691406 322.542969 C 506 320.554688 509.3125 318.570312 513.285156 316.582031 C 527.859375 311.945312 539.117188 299.363281 543.089844 284.792969 C 546.402344 272.871094 551.699219 261.609375 558.324219 251.015625 C 574.21875 225.847656 592.101562 202.003906 608.660156 177.496094 C 613.296875 170.210938 623.890625 164.25 618.59375 153.65625 C 613.957031 143.71875 603.359375 141.070312 592.761719 141.070312 C 582.167969 141.734375 570.90625 142.394531 560.3125 143.058594 C 464.9375 149.019531 382.8125 186.769531 310.621094 249.027344 C 231.144531 316.582031 180.808594 404.667969 141.734375 500.703125 C 139.085938 507.328125 138.421875 517.261719 127.164062 519.246094 C 115.902344 520.574219 104.644531 523.222656 93.386719 527.195312 C 72.191406 534.480469 50.996094 541.105469 27.816406 538.453125 C 21.855469 537.792969 15.894531 538.453125 9.933594 540.441406 C 5.960938 541.765625 3.3125 546.402344 0 549.714844 C 3.972656 552.363281 7.949219 554.351562 11.921875 555.011719 C 26.492188 555.675781 41.726562 555.011719 56.296875 554.351562 C 64.242188 553.6875 72.855469 553.023438 80.800781 551.039062 C 95.371094 547.726562 109.28125 541.765625 123.851562 541.105469 C 147.03125 539.777344 170.875 541.105469 194.054688 541.105469 C 203.328125 541.105469 211.9375 536.46875 221.210938 536.46875 C 289.425781 536.46875 357.644531 537.128906 425.863281 537.792969 C 447.054688 537.792969 467.585938 538.453125 488.78125 539.117188 C 523.882812 540.441406 558.324219 541.105469 592.761719 544.414062 C 625.214844 547.066406 657.007812 553.023438 689.460938 557 C 695.421875 557 702.042969 555.675781 708.003906 554.351562 C 717.277344 553.023438 725.886719 552.363281 735.160156 552.363281 C 755.027344 553.6875 774.898438 556.335938 794.765625 557.660156 C 798.742188 557.660156 804.039062 553.6875 807.351562 550.375 C 809.335938 549.050781 810 545.738281 809.335938 543.089844 Z M 521.234375 510.636719 C 493.417969 511.960938 465.601562 512.625 438.445312 513.949219 C 414.601562 515.9375 390.761719 519.246094 366.917969 521.898438 C 364.269531 521.898438 362.28125 521.898438 359.632812 521.898438 C 359.632812 521.898438 359.632812 521.234375 359.632812 521.234375 C 327.179688 518.585938 294.726562 515.9375 262.273438 514.613281 C 243.730469 513.949219 225.183594 515.9375 206.640625 516.597656 C 205.316406 516.597656 203.328125 516.597656 202.003906 517.261719 C 171.539062 518.585938 166.902344 511.960938 178.824219 484.144531 C 208.625 415.265625 247.703125 351.683594 296.050781 294.0625 C 311.285156 276.84375 328.503906 262.273438 348.371094 249.6875 C 378.175781 229.15625 409.304688 209.949219 441.757812 192.730469 C 476.199219 174.1875 515.273438 170.875 553.023438 163.589844 C 558.324219 163.589844 563.621094 166.238281 566.269531 170.875 C 568.257812 176.171875 567.597656 181.472656 565.609375 186.109375 C 549.050781 215.910156 530.507812 244.390625 514.613281 274.855469 C 508.652344 288.765625 499.378906 300.6875 487.457031 309.960938 C 475.535156 318.570312 476.859375 323.207031 489.445312 331.816406 C 493.417969 335.125 497.390625 339.761719 500.039062 343.738281 C 496.066406 347.046875 492.753906 350.359375 488.78125 353.007812 C 480.171875 358.96875 470.238281 364.929688 461.628906 371.554688 C 453.015625 378.175781 453.679688 383.476562 464.277344 387.449219 C 476.859375 392.085938 490.105469 396.722656 502.691406 400.695312 C 509.976562 402.683594 514.613281 407.980469 515.9375 415.265625 C 521.898438 440.433594 529.183594 465.601562 536.46875 490.769531 C 539.78125 498.714844 535.804688 507.328125 528.519531 510.636719 C 525.871094 510.636719 523.882812 510.636719 521.234375 510.636719 Z M 651.707031 597.398438 C 646.410156 599.386719 640.449219 600.050781 634.488281 600.710938 C 621.90625 597.398438 610.644531 594.75 598.722656 592.101562 C 596.738281 591.4375 593.425781 590.113281 592.101562 591.4375 C 576.867188 601.375 562.296875 595.414062 547.066406 590.113281 C 543.089844 588.789062 538.453125 588.128906 533.820312 588.128906 C 509.3125 589.453125 485.46875 590.777344 460.964844 592.761719 C 426.523438 595.414062 391.421875 598.722656 356.984375 601.375 C 351.023438 602.035156 345.0625 602.035156 339.101562 600.050781 C 335.125 598.722656 332.476562 594.089844 329.828125 591.4375 C 333.140625 588.789062 337.113281 587.464844 341.085938 586.140625 C 351.683594 584.816406 362.28125 584.152344 373.539062 583.492188 C 384.136719 582.828125 395.398438 582.167969 405.992188 581.503906 C 420.5625 580.84375 434.472656 579.515625 449.042969 578.855469 C 461.628906 578.191406 473.546875 577.53125 486.132812 576.207031 C 500.703125 574.882812 514.613281 572.894531 529.183594 572.230469 C 537.792969 571.570312 545.738281 572.230469 554.351562 574.882812 C 568.921875 580.179688 584.152344 580.84375 598.722656 577.53125 C 604.023438 576.867188 609.984375 577.53125 615.28125 579.515625 C 626.542969 582.828125 637.136719 586.804688 649.058594 583.492188 C 651.707031 582.828125 656.34375 586.804688 659.65625 588.128906 C 656.34375 591.4375 654.359375 596.074219 651.707031 597.398438 Z M 613.296875 644.421875 C 613.296875 647.734375 611.96875 651.046875 609.984375 653.695312 C 607.335938 655.683594 604.683594 657.007812 601.375 657.007812 C 574.882812 660.980469 548.390625 664.292969 521.898438 667.605469 C 516.597656 668.265625 511.300781 668.265625 502.691406 668.929688 C 484.144531 665.617188 462.953125 660.320312 441.09375 657.667969 C 425.199219 655.683594 409.304688 656.34375 393.410156 655.019531 C 388.773438 653.695312 384.136719 652.371094 379.5 649.722656 C 383.476562 646.410156 386.785156 641.773438 390.761719 641.113281 C 414.601562 635.152344 437.785156 641.113281 460.964844 646.410156 C 495.40625 655.019531 531.832031 654.359375 565.609375 644.421875 C 578.855469 641.773438 592.761719 640.449219 606.007812 640.449219 C 608.660156 639.789062 613.296875 642.4375 613.296875 644.421875 Z M 333.140625 649.722656 C 333.140625 653.035156 331.152344 656.34375 328.503906 658.332031 C 324.53125 660.320312 319.894531 660.980469 315.917969 660.980469 C 305.324219 660.980469 294.0625 660.320312 283.46875 660.320312 C 283.46875 659.65625 283.46875 658.996094 283.46875 658.332031 C 254.324219 660.980469 225.183594 664.292969 196.042969 666.28125 C 187.433594 666.941406 178.160156 666.28125 169.550781 666.28125 C 152.992188 666.941406 137.097656 667.605469 120.539062 667.605469 C 115.902344 666.941406 111.265625 666.28125 107.292969 664.953125 C 110.605469 660.980469 113.253906 655.019531 117.226562 654.359375 C 129.8125 651.707031 143.058594 647.734375 154.980469 649.722656 C 181.472656 654.359375 206.640625 647.734375 232.46875 646.410156 C 263.597656 644.421875 294.726562 645.085938 326.515625 645.085938 C 329.164062 644.421875 331.816406 646.410156 333.140625 649.722656 Z M 72.191406 599.386719 C 52.984375 609.984375 31.789062 603.359375 11.921875 602.699219 C 8.609375 602.035156 5.960938 599.386719 5.296875 596.074219 C 5.960938 592.765625 8.609375 590.113281 11.921875 588.789062 C 18.542969 587.464844 24.503906 587.464844 31.128906 588.789062 C 47.023438 592.101562 60.933594 586.804688 75.503906 582.167969 C 88.085938 578.191406 101.332031 575.542969 115.242188 574.21875 C 135.773438 572.230469 156.304688 572.230469 176.171875 572.230469 C 180.148438 572.230469 184.121094 576.207031 188.09375 578.191406 C 184.785156 582.167969 180.808594 585.476562 176.835938 588.128906 C 172.199219 588.789062 168.226562 588.789062 163.589844 588.128906 C 133.125 593.425781 101.332031 583.492188 72.191406 599.386719 Z M 206.640625 586.804688 C 202.664062 586.140625 199.355469 584.152344 195.378906 582.167969 C 198.03125 578.855469 200.015625 573.558594 203.328125 572.894531 C 210.613281 571.570312 217.898438 570.90625 225.183594 570.246094 C 254.988281 574.21875 284.128906 578.191406 313.269531 582.828125 C 315.917969 583.492188 320.554688 587.464844 319.894531 588.789062 C 319.230469 592.101562 316.582031 595.414062 313.269531 597.398438 C 308.632812 598.0625 304 598.0625 299.363281 596.738281 C 274.195312 593.425781 249.6875 589.453125 224.523438 586.140625 C 219.222656 584.816406 212.601562 586.804688 206.640625 586.804688 Z M 720.589844 627.203125 C 721.25 631.175781 720.589844 639.125 718.601562 639.789062 C 705.355469 645.75 692.109375 650.382812 678.863281 655.019531 C 673.566406 655.683594 668.265625 655.683594 663.628906 655.019531 C 657.667969 655.683594 651.707031 655.019531 645.75 654.359375 C 642.4375 653.035156 639.789062 648.398438 636.476562 645.085938 C 639.789062 643.097656 643.761719 640.449219 647.074219 640.449219 C 664.292969 640.449219 682.175781 644.421875 698.734375 635.152344 C 701.382812 633.828125 703.367188 631.839844 705.355469 629.191406 C 708.003906 626.542969 709.992188 622.566406 712.640625 621.90625 C 715.953125 621.90625 719.265625 623.890625 720.589844 627.203125 Z M 720.589844 627.203125 " fill-opacity="1" fill-rule="nonzero"/></svg>